<?xml version="1.0" ?><svg xmlns="http://www.w3.org/2000/svg" width="101" height="100" viewBox="0 0 101 100" fill="none"><path d="M39.2601 22.6784C39.419 22.1495 39.9766 21.8495 40.5055 22.0084L87.1046 36.0045C87.6336 36.1634 87.9336 36.721 87.7747 37.2499L72.8071 87.0833C72.6482 87.6122 72.0906 87.9122 71.5617 87.7534L24.9626 73.7572C24.4337 73.5983 24.1337 73.0408 24.2925 72.5118L39.2601 22.6784Z" fill="#FBF0D4"/><path d="M78.2379 33.3414L73.2444 70.0421C72.9465 72.231 70.9306 73.7641 68.7416 73.4663L25.7622 67.6185L39.2601 22.6784C39.419 22.1495 39.9765 21.8495 40.5055 22.0084L78.2379 33.3414Z" fill="#AFD9D7"/><path d="M23.1443 13.7408C23.2188 13.1935 23.7228 12.8103 24.27 12.8847L72.4814 19.4444C73.0286 19.5189 73.4119 20.0228 73.3374 20.5701L66.3225 72.1277C66.248 72.6749 65.7441 73.0582 65.1968 72.9837L16.9854 66.4241C16.4382 66.3496 16.0549 65.8456 16.1294 65.2984L23.1443 13.7408Z" fill="#FBF0D4"/><path d="M28.7158 21.2559C28.7903 20.7087 29.2943 20.3254 29.8415 20.3999L65.1045 25.1978C65.6518 25.2722 66.035 25.7762 65.9606 26.3235L61.8595 56.4653C61.785 57.0126 61.281 57.3958 60.7338 57.3214L25.4708 52.5235C24.9235 52.449 24.5403 51.945 24.6147 51.3978L28.7158 21.2559Z" fill="#AFD9D7"/><path fill-rule="evenodd" clip-rule="evenodd" d="M62.3101 53.1532L61.8595 56.4653C61.785 57.0125 61.281 57.3958 60.7338 57.3213L25.4708 52.5234C24.9235 52.449 24.5403 51.945 24.6147 51.3978L25.0653 48.0859C25.0733 48.0868 25.0813 48.0878 25.0893 48.0889L62.3101 53.1532Z" fill="#649CAE"/><circle cx="56.2306" cy="31.0313" r="5.35612" transform="rotate(7.7481 56.2306 31.0313)" fill="#FCDA9D"/><path d="M62.7307 50.0652L61.8599 56.4653C61.7855 57.0126 61.2815 57.3958 60.7343 57.3214L37.3652 54.1418C39.9375 50.7188 45.2183 49.6345 48.6279 49.4206C53.7898 49.0967 59.4128 49.6553 62.7307 50.0652Z" fill="#FCDA9D"/><path d="M59.641 49.7257C59.6588 49.7832 59.6746 49.8417 59.6883 49.9013C59.9998 51.2464 59.1618 52.5893 57.8167 52.9008C54.837 53.5906 52.2106 54.6271 49.8985 55.8473L42.2471 54.8062C44.9963 52.7397 48.3215 50.7704 52.3062 49.3252C54.9125 49.3421 57.4718 49.5182 59.641 49.7257Z" fill="#FCBB58"/><path fill-rule="evenodd" clip-rule="evenodd" d="M45.1113 30.2748C46.4294 30.6859 47.1647 32.0877 46.7536 33.4058C46.2666 34.9672 46.1144 39.8862 51.7897 43.6911C55.0354 45.8671 57.2676 47.4165 58.7517 48.4801C59.874 49.2844 60.1317 50.8462 59.3274 51.9685C58.5232 53.0907 56.9614 53.3485 55.8391 52.5442C54.4103 51.5202 52.2237 50.0017 49.0054 47.8441C41.2912 42.6723 40.9088 35.3528 41.9803 31.9171C42.3914 30.599 43.7932 29.8637 45.1113 30.2748Z" fill="#E93C04"/><path fill-rule="evenodd" clip-rule="evenodd" d="M24.6069 10.4074C22.6915 10.1468 20.9275 11.4882 20.6669 13.4036L13.652 64.9612C13.3914 66.8765 14.7328 68.6405 16.6482 68.9011L22.5266 69.7009L21.8983 71.7928C21.3422 73.6441 22.3922 75.5957 24.2435 76.1517L70.8426 90.1479C72.6939 90.7039 74.6455 89.6539 75.2015 87.8026L90.1691 37.9692C90.7251 36.1179 89.6751 34.1664 87.8238 33.6104L80.6134 31.4447C79.2911 31.0475 77.8971 31.7975 77.4999 33.1199C77.1028 34.4422 77.8528 35.8362 79.1751 36.2334L84.949 37.9675L70.8443 84.9277L27.1184 71.7945L27.5423 70.3833L64.8596 75.4607C66.7749 75.7213 68.5389 74.3799 68.7995 72.4645L75.8144 20.9069C76.075 18.9916 74.7336 17.2276 72.8182 16.967L24.6069 10.4074ZM18.8086 64.1489L25.4191 15.5639L70.6578 21.7192L64.0474 70.3041L18.8086 64.1489Z" fill="#0F1A2B"/><path d="M47.3776 25.7907C50.3611 24.9645 53.2983 26.2403 56.1892 27.4958C56.3815 27.5794 56.5736 27.6628 56.7655 27.7455C57.1696 27.9197 57.1147 28.3807 56.7655 28.5471C55.1753 29.3049 53.2585 30.1978 51.3473 31.0795C54.2272 32.6644 55.2888 35.8042 56.3391 38.9111C56.3784 39.0274 56.4177 39.1436 56.4571 39.2596C56.6633 39.8677 56.2464 40.175 55.7616 39.973C53.8008 39.1558 51.3739 38.1163 49.0685 37.1194C49.0446 39.249 48.33 41.4859 47.6475 43.6221C47.5922 43.7951 47.5371 43.9674 47.4826 44.139C47.3035 44.7033 46.8279 44.6358 46.5448 44.139C44.8897 41.2349 43.2389 38.3395 41.5444 35.4674C38.5307 36.8914 35.0312 38.5262 32.3414 39.7285C31.8364 39.9543 31.447 39.7285 31.6705 38.9808C31.7087 38.8529 31.7468 38.7247 31.785 38.5962C32.6233 35.7788 33.4967 32.8431 35.7526 31.1478C34.7159 30.7539 33.7254 30.3726 32.8289 30.0205C32.4331 29.865 32.4384 29.3723 32.8289 29.1562C32.974 29.076 33.1194 28.9952 33.265 28.9143C35.8797 27.4614 38.5716 25.9657 41.4141 26.4471C42.5339 24.4391 44.8322 24.0115 47.2085 23.9328C48.1322 23.9022 48.0853 24.3122 47.886 24.7294L47.3776 25.7907Z" fill="#2D4B5F"/></svg>